<?xml version="1.0" encoding="UTF-8"?>
<!-- (c) Carrd Inc. All rights reserved. All logos and trademarks are property of their respective owners. -->
<svg xmlns="http://www.w3.org/2000/svg" version="1.1" xmlns:xlink="http://www.w3.org/1999/xlink" viewBox="0 0 40 40" display="none" width="0" height="0">
	<symbol id="arrow-down" viewBox="0 0 40 40"><path d="M18.5,5.6H21c0.7,0,1.3,0.2,1.8,0.6c0.5,0.4,0.7,1,0.7,1.7v13.8l5.8-5.8c0.5-0.5,1.1-0.7,1.8-0.7c0.7,0,1.3,0.2,1.8,0.7 l1.5,1.5c0.5,0.5,0.7,1.1,0.7,1.8c0,0.7-0.2,1.3-0.7,1.8L21.6,33.7c-0.5,0.5-1.1,0.7-1.8,0.7c-0.7,0-1.3-0.2-1.8-0.7L5.2,21 c-0.5-0.5-0.7-1.1-0.7-1.8s0.2-1.3,0.7-1.8l1.5-1.5c0.5-0.5,1.1-0.7,1.8-0.7c0.7,0,1.3,0.2,1.8,0.7l5.8,5.8V7.9 c0-0.7,0.2-1.2,0.7-1.7C17.3,5.8,17.8,5.6,18.5,5.6z" /></symbol>
	<symbol id="arrow-right-alt-light" viewBox="0 0 40 40"><path d="M12.9,32.4L25.3,20L13,7.6c-0.2-0.2-0.2-0.5,0-0.7l1.6-1.6c0.2-0.2,0.5-0.2,0.7,0L29.8,20L15.1,34.6c-0.2,0.2-0.5,0.2-0.7,0 l-1.6-1.6C12.7,32.9,12.7,32.6,12.9,32.4z"/></symbol>
	<symbol id="github" viewBox="0 0 40 40"><path d="M36,20.3c0,3.5-1,6.6-3.1,9.4c-2,2.8-4.7,4.7-7.9,5.8c-0.4,0.1-0.6,0-0.8-0.1c-0.2-0.2-0.3-0.4-0.3-0.6v-4.4 c0-1.3-0.4-2.3-1.1-3c0.8-0.1,1.5-0.2,2.1-0.4c0.6-0.2,1.3-0.4,2-0.8c0.7-0.4,1.2-0.8,1.7-1.4c0.5-0.5,0.8-1.3,1.1-2.2 s0.4-2,0.4-3.1c0-1.7-0.5-3.1-1.6-4.3c0.5-1.3,0.5-2.7-0.2-4.2c-0.4-0.1-1,0-1.7,0.2c-0.7,0.3-1.4,0.6-1.9,0.9L24,12.5 c-1.3-0.4-2.6-0.5-4-0.5s-2.7,0.2-4,0.5c-0.2-0.2-0.5-0.3-0.9-0.6c-0.4-0.2-0.9-0.5-1.7-0.8c-0.8-0.3-1.4-0.4-1.8-0.3 c-0.6,1.6-0.7,3-0.1,4.2c-1.1,1.2-1.6,2.6-1.6,4.3c0,1.2,0.1,2.2,0.4,3.1s0.6,1.6,1.1,2.2s1,1,1.7,1.4c0.7,0.4,1.3,0.6,2,0.8 c0.6,0.2,1.3,0.3,2.1,0.4c-0.6,0.5-0.9,1.2-1,2.1c-0.3,0.1-0.6,0.2-0.9,0.3c-0.3,0.1-0.7,0.1-1.2,0.1c-0.5,0-0.9-0.1-1.4-0.4 c-0.5-0.3-0.8-0.7-1.2-1.3c-0.3-0.4-0.6-0.8-1-1.1c-0.4-0.3-0.8-0.4-1-0.5L9,26.5c-0.3,0-0.5,0-0.6,0.1c-0.1,0.1-0.1,0.1-0.1,0.2 c0,0.1,0.1,0.2,0.2,0.3c0.1,0.1,0.2,0.2,0.3,0.2l0.1,0.1c0.3,0.1,0.6,0.4,0.9,0.8s0.5,0.7,0.7,1.1l0.2,0.5c0.2,0.5,0.5,1,0.9,1.3 c0.4,0.3,0.9,0.5,1.4,0.6c0.5,0.1,1,0.1,1.4,0.1c0.5,0,0.9,0,1.2-0.1l0.5-0.1c0,0.5,0,1.1,0,1.9c0,0.7,0,1.1,0,1.1 c0,0.2-0.1,0.5-0.3,0.6c-0.2,0.2-0.5,0.2-0.8,0.1c-3.2-1.1-5.8-3-7.9-5.8S4,23.8,4,20.3c0-2.9,0.7-5.6,2.1-8S9.5,7.8,12,6.4 s5.1-2.1,8-2.1s5.6,0.7,8,2.1s4.4,3.4,5.8,5.8S36,17.4,36,20.3L36,20.3z"/></symbol>
	<symbol id="email" viewBox="0 0 40 40"><path d="M37.3,15.3v15.3c0,0.8-0.3,1.6-0.9,2.2c-0.6,0.6-1.4,0.9-2.2,0.9H5.8c-0.8,0-1.6-0.3-2.2-0.9s-0.9-1.4-0.9-2.2V15.3 c0.5,0.6,1.2,1.1,2,1.7c4.7,3.1,7.9,5.4,9.6,6.7c0.7,0.5,1.4,0.9,1.8,1.2c0.4,0.3,1,0.6,1.9,0.9c0.7,0.3,1.5,0.5,2.1,0.5l0,0 c0.6,0,1.4-0.2,2.1-0.5c0.7-0.3,1.4-0.6,1.9-0.9c0.4-0.3,1-0.7,1.8-1.2c2.2-1.6,5.4-3.8,9.6-6.7C36.1,16.5,36.7,15.9,37.3,15.3 L37.3,15.3z M37.3,9.6c0,1-0.3,2-0.9,2.9c-0.6,0.9-1.5,1.8-2.4,2.4c-4.9,3.3-7.9,5.4-9,6.2c-0.1,0.1-0.4,0.3-0.8,0.6 c-0.4,0.3-0.7,0.5-1,0.7c-0.3,0.2-0.6,0.4-1,0.6c-0.4,0.2-0.7,0.4-1.1,0.5c-0.4,0.1-0.6,0.2-0.9,0.2l0,0c-0.3,0-0.6-0.1-0.9-0.2 c-0.3-0.1-0.7-0.3-1.1-0.5c-0.4-0.2-0.7-0.4-1-0.6c-0.3-0.2-0.6-0.4-1-0.7c-0.4-0.3-0.7-0.5-0.8-0.6c-1.1-0.8-2.8-2-5.1-3.5 c-2.3-1.6-3.3-2.4-3.7-2.7c-0.8-0.5-1.6-1.2-2.3-2.2s-1-1.9-1-2.6c0-1,0.3-1.9,0.8-2.5c0.5-0.6,1.2-1,2.3-1h28.4 c0.8,0,1.6,0.3,2.2,0.9C37.1,8.1,37.3,8.8,37.3,9.6L37.3,9.6z"/></symbol>
	<symbol id="home" viewBox="0 0 40 40"><path d="M33.3,22.3v11.2c0,0.4-0.1,0.8-0.4,1.1c-0.3,0.3-0.6,0.4-1.1,0.4h-9v-9h-6v9h-9c-0.4,0-0.8-0.1-1.1-0.4 c-0.3-0.3-0.4-0.6-0.4-1.1V22.3c0,0,0,0,0-0.1s0-0.1,0-0.1L19.9,11l13.5,11.1C33.3,22.1,33.3,22.2,33.3,22.3L33.3,22.3z M38.5,20.6 l-1.5,1.7c-0.1,0.1-0.3,0.2-0.5,0.3h-0.1c-0.2,0-0.4-0.1-0.5-0.2L19.9,9L3.7,22.5c-0.2,0.1-0.4,0.2-0.6,0.2c-0.2,0-0.4-0.1-0.5-0.3 l-1.5-1.7C1,20.5,1,20.3,1,20.1s0.1-0.4,0.3-0.5l16.8-14C18.6,5.2,19.2,5,19.9,5s1.3,0.2,1.8,0.6l5.7,4.8V5.8c0-0.2,0.1-0.4,0.2-0.5 S27.9,5,28.1,5h4.5c0.2,0,0.4,0.1,0.5,0.2c0.1,0.1,0.2,0.3,0.2,0.5v9.5l5.1,4.3c0.2,0.1,0.2,0.3,0.3,0.5 C38.7,20.3,38.7,20.5,38.5,20.6L38.5,20.6z"/></symbol>
	<symbol id="arrow-up" viewBox="0 0 40 40"><path d="M21.1,34.4h-2.5c-0.7,0-1.3-0.2-1.8-0.6c-0.5-0.4-0.7-1-0.7-1.7V18.3l-5.8,5.8c-0.5,0.5-1.1,0.7-1.8,0.7 c-0.7,0-1.3-0.2-1.8-0.7l-1.5-1.5c-0.5-0.5-0.7-1.1-0.7-1.8c0-0.7,0.2-1.3,0.7-1.8L18,6.3c0.5-0.5,1.1-0.7,1.8-0.7 c0.7,0,1.3,0.2,1.8,0.7L34.4,19c0.5,0.5,0.7,1.1,0.7,1.8c0,0.7-0.2,1.3-0.7,1.8l-1.5,1.5c-0.5,0.5-1.1,0.7-1.8,0.7s-1.3-0.2-1.8-0.7 l-5.8-5.8v13.8c0,0.7-0.2,1.2-0.7,1.7C22.3,34.2,21.8,34.4,21.1,34.4z" /></symbol>
</svg>
